#!OML:ASF E:\emotionWalksFemale\Project 1\Capture day 1\Session 1\Female1.ASF
:FULLY-SPECIFIED
:DEGREES
607
root 7.88448 15.3917 25.2069 176.479 0.471026 -181.136
lowerback 8.46881 1.57368 -3.44356
upperback -4.02246 1.6328 -2.78322
thorax -9.05718 0.972941 -1.30246
lowerneck -5.81154 -3.74285 -9.45082
upperneck 9.70411 -5.39193 9.85638
head 4.36334 -2.5989 4.27779
rclavicle 1.09332e-014 -2.78299e-014
rhumerus -43.9114 9.19609 -92.2213
rradius 61.4869
rwrist 9.08024
rhand -5.64602 -55.7612
rfingers 7.12502
rthumb -159.827 -264.734
lclavicle 1.09332e-014 -2.78299e-014
lhumerus -44.7271 12.1311 67.0403
lradius 47.7141
lwrist -2.98223
lhand -4.88742 -33.3196
lfingers 7.12502
lthumb 20.9016 -4.42559
rfemur -17.1272 -5.38156 20.372
rtibia 70.9036
rfoot -6.42007 -10.8839
rtoes -3.28478
lfemur -6.24784 -5.77552 -28.9289
ltibia 25.4634
lfoot -19.13 7.95253
ltoes -23.1776
608
root 7.8846 15.3802 25.1226 176.391 0.385746 -181.164
lowerback 8.43327 1.56361 -3.60065
upperback -3.96496 1.60469 -2.77236
thorax -8.97878 0.968124 -1.1949
lowerneck -5.70866 -3.76915 -9.58269
upperneck 9.65513 -5.42533 9.90876
head 4.3394 -2.62015 4.31548
rclavicle 2.98177e-016 -6.36111e-014
rhumerus -44.0758 9.01228 -92.1566
rradius 61.8845
rwrist 9.02375
rhand -5.60147 -56.0072
rfingers 7.12502
rthumb -159.785 -264.975
lclavicle 2.98177e-016 -6.36111e-014
lhumerus -44.3149 11.9447 67.5764
lradius 48.305
lwrist -2.40689
lhand -5.10749 -33.2585
lfingers 7.12502
lthumb 20.6901 -4.3414
rfemur -18.0189 -5.42393 20.5161
rtibia 70.6532
rfoot -7.15626 -11.4198
rtoes -2.93842
lfemur -5.84254 -5.69065 -29.016
ltibia 25.5277
lfoot -18.7069 8.45919
ltoes -29.4827
609
root 7.88688 15.375 25.0428 176.374 0.213847 -181.057
lowerback 8.43352 1.53255 -3.61263
upperback -3.96553 1.56207 -2.75879
thorax -8.97986 0.94843 -1.16682
lowerneck -5.60477 -3.79755 -9.71881
upperneck 9.65898 -5.48694 10.088
head 4.33743 -2.65224 4.39206
rclavicle -4.96962e-015 2.46493e-014
rhumerus -44.1905 8.80947 -92.1021
rradius 62.0757
rwrist 9.08183
rhand -5.29513 -55.8927
rfingers 7.12502
rthumb -159.49 -264.829
lclavicle -4.96962e-015 2.46493e-014
lhumerus -43.8839 11.9041 68.0096
lradius 48.7462
lwrist -2.16106
lhand -5.44014 -33.5312
lfingers 7.12502
lthumb 20.3705 -4.57958
rfemur -18.9575 -5.34605 20.8142
rtibia 70.2702
rfoot -7.81706 -11.9039
rtoes 0.102062
lfemur -5.58854 -5.66084 -28.9335
ltibia 25.7341
lfoot -18.8867 8.3719
ltoes -30.1569
610
root 7.88242 15.3709 24.9419 176.047 0.147426 -181.461
lowerback 8.40455 1.55501 -4.0394
upperback -3.83389 1.54836 -2.88174
thorax -8.82976 0.965057 -1.05172
lowerneck -5.49387 -3.7901 -9.85169
upperneck 9.67974 -5.49903 10.2394
head 4.33351 -2.66143 4.46293
rclavicle -7.85199e-015 5.56597e-015
rhumerus -44.3981 8.79389 -92.1394
rradius 62.2853
rwrist 8.84814
rhand -6.02201 -55.6512
rfingers 7.12502
rthumb -160.189 -264.662
lclavicle -7.85199e-015 5.56597e-015
lhumerus -43.5132 12.025 68.3374
lradius 49.1361
lwrist -2.1804
lhand -5.65861 -33.8875
lfingers 7.12502
lthumb 20.1605 -4.91357
rfemur -19.3496 -5.22216 20.3918
rtibia 69.8048
rfoot -8.52606 -12.057
rtoes 1.00868
lfemur -4.74067 -5.66864 -29.5239
ltibia 25.7783
lfoot -19.2714 8.64921
ltoes -30.3173
611
root 7.88779 15.3602 24.8728 176.116 -0.145646 -181.12
lowerback 8.47724 1.68837 -3.83145
upperback -3.87852 1.39716 -2.76979
thorax -8.92494 0.736751 -1.00617
lowerneck -5.21474 -3.80788 -9.89954
upperneck 9.49148 -5.51162 10.1329
head 4.22947 -2.68006 4.44067
rclavicle -4.96962e-016 -4.6118e-014
rhumerus -44.925 8.80623 -92.1019
rradius 63.2036
rwrist 8.52108
rhand -6.68808 -55.5819
rfingers 7.12502
rthumb -160.829 -264.657
lclavicle -4.96962e-016 -4.6118e-014
lhumerus -43.1047 12.0103 68.8283
lradius 49.5416
lwrist -1.81009
lhand -5.86587 -34.1501
lfingers 7.12502
lthumb 19.9613 -5.15535
rfemur -20.3572 -5.28081 21.0717
rtibia 69.2589
rfoot -8.85322 -12.586
rtoes -2.93299
lfemur -4.59796 -5.8808 -29.1741
ltibia 25.8539
lfoot -19.5268 8.72506
ltoes -30.8523
612
root 7.88641 15.3462 24.7793 175.954 -0.270462 -181.435
lowerback 8.32323 1.70942 -4.14294
upperback -3.79383 1.38141 -2.87911
thorax -8.75015 0.737126 -0.937396
lowerneck -4.9585 -3.84355 -9.87226
upperneck 9.32867 -5.55192 9.98163
head 4.13676 -2.71112 4.38999
rclavicle 1.19271e-015 -1.59028e-014
rhumerus -45.3577 8.75429 -92.0959
rradius 63.9669
rwrist 8.51635
rhand -6.01711 -55.8373
rfingers 7.12502
rthumb -160.184 -264.847
lclavicle 1.19271e-015 -1.59028e-014
lhumerus -42.6599 11.6324 69.4858
lradius 49.9433
lwrist -0.851147
lhand -6.23524 -34.1094
lfingers 7.12502
lthumb 19.6062 -5.07807
rfemur -20.9059 -5.30354 20.8493
rtibia 68.6795
rfoot -9.47914 -12.8884
rtoes -5.2419
lfemur -3.97401 -6.04788 -29.6457
ltibia 25.8354
lfoot -19.9393 8.80212
ltoes -30.7153
